<?xml version="1.0" standalone="no"?>
<!DOCTYPE svg PUBLIC "-//W3C//DTD SVG 20010904//EN"
 "http://www.w3.org/TR/2001/REC-SVG-20010904/DTD/svg10.dtd">
<svg version="1.0" xmlns="http://www.w3.org/2000/svg"
 width="585.000000pt" height="223.000000pt" viewBox="0 0 585.000000 223.000000"
 preserveAspectRatio="xMidYMid meet">

<g transform="translate(0.000000,223.000000) scale(0.100000,-0.100000)"
fill="#000000" stroke="none">
<path d="M0 1115 l0 -1115 2925 0 2925 0 0 1115 0 1115 -2925 0 -2925 0 0
-1115z m2576 624 c107 -40 173 -127 160 -213 -13 -85 -76 -132 -167 -124 -94
9 -145 91 -119 191 16 65 15 112 -5 140 -8 12 -15 25 -15 29 0 12 89 -3 146
-23z m1317 25 c4 -4 -15 -25 -41 -48 -26 -22 -92 -84 -148 -138 -55 -54 -103
-98 -106 -98 -4 0 -9 15 -13 33 -16 75 -77 169 -141 218 -18 14 -31 29 -27 33
8 8 468 8 476 0z m-743 -579 l0 -575 -140 0 -140 0 0 575 0 575 140 0 140 0 0
-575z m-980 198 c129 -52 261 -108 293 -125 115 -62 209 -180 242 -303 17 -69
20 -155 4 -155 -20 0 -484 192 -564 233 -171 89 -302 263 -313 417 l-5 71 54
-21 c30 -12 160 -64 289 -117z m1542 -419 c136 -186 247 -342 247 -347 1 -4
-70 -6 -156 -5 l-157 3 -188 260 c-104 143 -187 265 -186 271 5 19 169 165
181 161 7 -2 123 -156 259 -343z m-1847 -44 c68 -99 205 -203 340 -261 33 -14
71 -31 85 -37 19 -8 -34 -10 -220 -9 l-245 2 -3 173 c-1 95 1 172 6 172 5 0
22 -18 37 -40z"/>
</g>
</svg>
