<svg height="223pt" preserveAspectRatio="xMidYMid meet" viewBox="20 0 545 223" width="545pt" xmlns="http://www.w3.org/2000/svg"><path d="m0 1115v-1115h2925 2925v1115 1115h-2925-2925zm2576 624c107-40 173-127 160-213-13-85-76-132-167-124-94 9-145 91-119 191 16 65 15 112-5 140-8 12-15 25-15 29 0 12 89-3 146-23zm1317 25c4-4-15-25-41-48-26-22-92-84-148-138-55-54-103-98-106-98-4 0-9 15-13 33-16 75-77 169-141 218-18 14-31 29-27 33 8 8 468 8 476 0zm-743-579v-575h-140-140v575 575h140 140zm-980 198c129-52 261-108 293-125 115-62 209-180 242-303 17-69 20-155 4-155-20 0-484 192-564 233-171 89-302 263-313 417l-5 71 54-21c30-12 160-64 289-117zm1542-419c136-186 247-342 247-347 1-4-70-6-156-5l-157 3-188 260c-104 143-187 265-186 271 5 19 169 165 181 161 7-2 123-156 259-343zm-1847-44c68-99 205-203 340-261 33-14 71-31 85-37 19-8-34-10-220-9l-245 2-3 173c-1 95 1 172 6 172s22-18 37-40z" transform="matrix(.1 0 0 -.1 0 223)"/></svg>